<svg width="95" height="39" viewBox="0 0 95 39" fill="none" xmlns="http://www.w3.org/2000/svg">
<g clip-path="url(#clip0_32_721)">
<path d="M36.4166 24.2171C33.8122 34.6637 23.2316 41.0212 12.7838 38.4162C2.34044 35.8118 -4.01712 25.2305 -1.41161 14.7848C1.19161 4.33717 11.7723 -2.02086 22.2168 0.583507C32.6638 3.18787 39.021 13.7703 36.4163 24.2173L36.4165 24.2171H36.4166Z" fill="#F7931A" stroke="#FFC63C" stroke-width="2"/>
<path fill-rule="evenodd" clip-rule="evenodd" d="M26.1009 16.7217C26.489 14.1266 24.5133 12.7317 21.8117 11.8012L22.6881 8.28598L20.5483 7.75279L19.6952 11.1754C19.1326 11.0351 18.5549 10.9029 17.9808 10.7719L18.8401 7.32664L16.7017 6.79346L15.8248 10.3075C15.3592 10.2015 14.902 10.0968 14.4584 9.98639L14.4609 9.97533L11.5101 9.23846L10.9409 11.5239C10.9409 11.5239 12.5284 11.8878 12.495 11.9102C13.3615 12.1265 13.5182 12.7001 13.4921 13.1547L12.4938 17.1594C12.5535 17.1745 12.6309 17.1964 12.7163 17.2307L12.6542 17.2153C12.6014 17.202 12.5465 17.1883 12.4901 17.1748L11.0908 22.7847C10.9849 23.048 10.7161 23.443 10.1103 23.293C10.1317 23.3241 8.55505 22.9049 8.55505 22.9049L7.49268 25.3543L10.2773 26.0485C10.582 26.1249 10.8831 26.2034 11.1811 26.2811L11.1819 26.2812C11.3903 26.3356 11.5972 26.3895 11.8029 26.4421L10.9174 29.9976L13.0547 30.5308L13.9316 27.013C14.5155 27.1715 15.0822 27.3178 15.6369 27.4556L14.763 30.9568L16.9029 31.4899L17.7882 27.9411C21.4371 28.6317 24.1807 28.3533 25.3355 25.0529C26.2661 22.3957 25.2892 20.8631 23.3695 19.8636C24.7677 19.5412 25.8208 18.6216 26.1016 16.722L26.101 16.7215L26.1009 16.7217ZM15.0434 24.5461L15.0434 24.5461C14.8863 24.5046 14.746 24.4676 14.6263 24.4378L15.8013 19.7274C15.9472 19.7638 16.1254 19.8038 16.3274 19.8491L16.3275 19.8492C18.1334 20.2545 21.8335 21.0848 21.212 23.5772H21.2119C20.6052 26.0151 16.7893 25.0072 15.0434 24.5461ZM16.6897 17.663C18.1453 18.0514 21.3207 18.8989 21.8737 16.6832H21.8739C22.4386 14.417 19.3526 13.7338 17.8455 13.4001C17.6759 13.3626 17.5264 13.3295 17.4042 13.299L16.3389 17.5711C16.4395 17.5962 16.5575 17.6277 16.6897 17.663Z" fill="white"/>
<circle cx="46.5" cy="19.5" r="19.5" fill="#EDF0F4" stroke="#FFC63C" stroke-width="2"/>
<path d="M46.4469 7.80005L46.2917 8.32697V23.6155L46.4469 23.7703L53.5435 19.5754L46.4469 7.80005Z" fill="#343434"/>
<path d="M46.4469 7.80005L39.3501 19.5754L46.4469 23.7703V16.3496V7.80005Z" fill="#8C8C8C"/>
<path d="M46.4468 25.1139L46.3594 25.2205V30.6665L46.4468 30.9217L53.5478 20.9211L46.4468 25.1139Z" fill="#3C3C3B"/>
<path d="M46.4469 30.9217V25.1139L39.3501 20.9211L46.4469 30.9217Z" fill="#8C8C8C"/>
<path d="M46.447 23.7702L53.5437 19.5754L46.447 16.3496V23.7702Z" fill="#141414"/>
<path d="M39.3501 19.5754L46.4469 23.7702V16.3496L39.3501 19.5754Z" fill="#393939"/>
<path d="M94.4122 24.2171C91.8078 34.6637 81.2272 41.0212 70.7794 38.4162C60.336 35.8118 53.9785 25.2305 56.584 14.7848C59.1872 4.33717 69.7679 -2.02086 80.2124 0.583507C90.6594 3.18787 97.0166 13.7703 94.4119 24.2173L94.4121 24.2171H94.4122Z" fill="#50AF95" stroke="#FFC63C" stroke-width="2"/>
<path fill-rule="evenodd" clip-rule="evenodd" d="M77.9675 21.7108C77.8296 21.7211 77.1172 21.7636 75.5281 21.7636C74.2642 21.7636 73.3668 21.7257 73.052 21.7108C68.1675 21.4959 64.5216 20.6456 64.5216 19.6276C64.5216 18.6095 68.1675 17.7604 73.052 17.5421V20.8639C73.3714 20.8869 74.286 20.9409 75.55 20.9409C77.0667 20.9409 77.8262 20.8777 77.9629 20.8651V17.5444C82.837 17.7616 86.4749 18.6118 86.4749 19.6276C86.4749 20.6433 82.8382 21.4936 77.9629 21.7096L77.9675 21.7108ZM77.9675 17.2008V14.2283H84.7697V9.69543H66.2498V14.2283H73.0508V17.1997C67.5229 17.4536 63.3657 18.5486 63.3657 19.8608C63.3657 21.173 67.5229 22.2669 73.0508 22.522V32.0474H77.9663V22.5185C83.4817 22.2646 87.6319 21.1707 87.6319 19.8597C87.6319 18.5486 83.4851 17.4548 77.9663 17.1997L77.9675 17.2008Z" fill="white"/>
</g>
<defs>
<clipPath id="clip0_32_721">
<rect width="95" height="39" fill="white"/>
</clipPath>
</defs>
</svg>
