<svg width="284" height="182" viewBox="0 0 284 182" fill="none" xmlns="http://www.w3.org/2000/svg">
<path d="M148.844 107.758L132.626 91.5406L132.265 91.1802L131.905 91.5406L74.6019 148.844L0.360358 74.602L0.360356 107.758L74.6019 182L148.844 107.758Z" fill="url(#paint0_linear_1_372)"/>
<path d="M107.398 33.1564L91.1803 49.3743L90.8199 49.7346L91.1803 50.095L148.483 107.398L74.2416 181.64L107.398 181.64L181.64 107.398L107.398 33.1564Z" fill="url(#paint1_linear_1_372)"/>
<path d="M176.771 175.823L176.935 174.699L184.113 175.745L183.949 176.869L176.771 175.823ZM183.202 176.187L184.723 171.359L185.305 172.29L177.073 171.09L177.241 169.938L186.119 171.232L184.48 176.373L184.583 181.767L175.776 180.484L175.944 179.332L184.105 180.521L183.282 181.248L183.202 176.187Z" fill="white"/>
<path d="M162.566 166.225L163.197 166.398L159.926 175.871L158.705 175.449L162.18 165.386L163.803 165.946L168.194 178.065L167.563 177.892L170.848 168.379L172.069 168.8L168.594 178.864L166.957 178.299L162.566 166.225Z" fill="white"/>
<path d="M155.202 167.738L154.069 167.089L154.33 166.633C154.866 165.697 155.064 164.828 154.923 164.028C154.769 163.23 154.187 162.542 153.177 161.964C152.166 161.385 151.285 161.229 150.532 161.496C149.771 161.758 149.125 162.353 148.594 163.281L145.51 168.664L144.352 168L147.45 162.593C147.972 161.682 148.575 161.029 149.259 160.635C149.929 160.245 150.651 160.081 151.423 160.141C152.195 160.202 152.98 160.461 153.776 160.917C154.565 161.368 155.18 161.912 155.623 162.548C156.066 163.183 156.287 163.893 156.285 164.677C156.278 165.469 156.014 166.321 155.491 167.233L155.202 167.738Z" fill="white"/>
<path d="M141.123 152.076C142.022 152.846 142.665 153.702 143.054 154.645C143.435 155.582 143.549 156.526 143.395 157.478C143.234 158.437 142.8 159.329 142.092 160.156C141.378 160.99 140.563 161.557 139.647 161.856C138.73 162.155 137.78 162.189 136.795 161.956C135.803 161.718 134.858 161.214 133.96 160.445C133.061 159.675 132.421 158.822 132.039 157.885C131.658 156.948 131.545 156.004 131.699 155.052C131.853 154.101 132.287 153.208 133.001 152.374C133.709 151.547 134.524 150.981 135.447 150.674C136.363 150.375 137.314 150.342 138.298 150.574C139.283 150.806 140.224 151.307 141.123 152.076ZM140.338 152.993C139.627 152.384 138.895 151.988 138.142 151.804C137.383 151.628 136.651 151.662 135.945 151.904C135.239 152.147 134.603 152.599 134.037 153.26C133.464 153.929 133.113 154.631 132.982 155.366C132.851 156.101 132.934 156.826 133.231 157.541C133.528 158.256 134.032 158.919 134.744 159.528C135.456 160.137 136.188 160.534 136.941 160.717C137.693 160.9 138.426 160.873 139.139 160.637C139.845 160.394 140.484 159.939 141.057 159.27C141.623 158.609 141.972 157.91 142.102 157.175C142.226 156.434 142.143 155.702 141.852 154.98C141.555 154.265 141.05 153.602 140.338 152.993Z" fill="white"/>
<path d="M130.639 141.568L126.682 144.689L125.855 143.641L129.812 140.52L130.639 141.568ZM125.4 152.118L124.45 150.914L126.085 143.749L126.621 144.429L119.29 144.371L118.341 143.168L126.752 143.241L127.281 143.89L125.4 152.118Z" fill="white"/>
<path d="M110.915 110.949C111.747 110.788 112.55 110.85 113.322 111.133C114.086 111.42 114.761 111.898 115.348 112.567C115.931 113.228 116.378 114.055 116.689 115.048C117.039 116.168 117.126 117.222 116.949 118.209C116.769 119.188 116.36 120.035 115.721 120.75C115.073 121.468 114.229 121.99 113.191 122.315C112.143 122.643 111.153 122.694 110.22 122.471C109.287 122.247 108.468 121.784 107.763 121.082C107.055 120.372 106.526 119.457 106.175 118.337C105.865 117.343 105.761 116.409 105.864 115.534C105.964 114.65 106.247 113.872 106.711 113.201C107.166 112.533 107.786 112.027 108.571 111.682L108.974 112.97C108.411 113.264 107.97 113.66 107.65 114.157C107.32 114.657 107.128 115.232 107.074 115.884C107.011 116.538 107.097 117.24 107.331 117.99C107.605 118.866 108.011 119.577 108.549 120.123C109.083 120.66 109.713 121.008 110.437 121.168C111.162 121.328 111.944 121.277 112.784 121.014C113.615 120.754 114.282 120.352 114.786 119.808C115.29 119.264 115.614 118.617 115.756 117.868C115.887 117.114 115.815 116.298 115.541 115.422C115.307 114.672 114.982 114.045 114.566 113.541C114.142 113.039 113.656 112.675 113.109 112.449C112.554 112.227 111.957 112.156 111.317 112.236L110.915 110.949Z" fill="white"/>
<path d="M108.272 104.82L107.73 100.281C107.646 99.5861 107.406 99.0524 107.009 98.6806C106.611 98.2993 106.12 98.1435 105.538 98.2131C104.946 98.2839 104.506 98.5509 104.218 99.0142C103.92 99.4693 103.813 100.044 103.896 100.74L104.46 105.462L103.685 104.954L113.805 103.744L113.963 105.069L103.392 106.333L102.735 100.836C102.649 100.122 102.706 99.481 102.905 98.9139C103.095 98.3479 103.402 97.8871 103.827 97.5314C104.25 97.1662 104.767 96.9471 105.378 96.8741C105.979 96.8022 106.529 96.8938 107.026 97.1488C107.523 97.3944 107.934 97.7693 108.261 98.2735C108.579 98.7788 108.781 99.3885 108.866 100.103L109.414 104.683L108.272 104.82ZM108.627 102.404L108.431 100.769L112.851 95.7661L113.048 97.4152L108.627 102.404Z" fill="white"/>
<path d="M112.981 87.2025L107.951 86.8926L108.033 85.5608L113.063 85.8707L112.981 87.2025ZM102.045 91.5776L102.139 90.0474L108.133 85.7945L108.08 86.6588L102.652 81.7305L102.746 80.2003L108.968 85.8601L108.931 86.697L102.045 91.5776Z" fill="white"/>
<path d="M105.153 68.4072C105.332 67.6814 105.616 67.0838 106.005 66.6144C106.394 66.1451 106.859 65.8212 107.4 65.6429C107.932 65.4623 108.501 65.4469 109.107 65.5966C109.714 65.7464 110.215 66.0261 110.611 66.4358C110.998 66.8432 111.259 67.3463 111.393 67.9449C111.519 68.5413 111.492 69.2024 111.313 69.9283L110.149 74.6415L109.019 74.3625L110.176 69.6768C110.349 68.9785 110.31 68.3842 110.061 67.8937C109.805 67.3918 109.378 67.0671 108.781 66.9197C108.184 66.7722 107.659 66.8621 107.208 67.1893C106.759 67.5074 106.449 68.0156 106.276 68.7138L105.153 73.2617L104.662 72.5264L114.502 74.9559L114.182 76.2514L103.846 73.6993L105.153 68.4072Z" fill="white"/>
<path d="M110.203 55.6483L110.741 54.4274L119.898 58.466L119.36 59.6868L110.203 55.6483ZM107.774 59.5728L112.001 49.9875L113.079 50.4629L108.852 60.0482L107.774 59.5728Z" fill="white"/>
<path d="M127.1 46.0178C126.429 46.992 125.645 47.7217 124.748 48.2069C123.856 48.6843 122.928 48.896 121.966 48.8421C120.996 48.7827 120.062 48.4444 119.166 47.8271C118.262 47.2044 117.613 46.453 117.219 45.5729C116.826 44.6928 116.693 43.7511 116.821 42.7476C116.955 41.7364 117.357 40.7437 118.028 39.7694C118.699 38.7952 119.48 38.0694 120.372 37.592C121.264 37.1146 122.191 36.9029 123.154 36.9568C124.116 37.0108 125.05 37.3491 125.954 37.9718C126.85 38.5891 127.499 39.3405 127.9 40.226C128.294 41.1061 128.427 42.0478 128.298 43.0513C128.17 44.0547 127.771 45.0436 127.1 46.0178ZM126.106 45.3334C126.638 44.5618 126.955 43.7922 127.059 43.0246C127.154 42.2517 127.044 41.5268 126.729 40.8501C126.414 40.1733 125.898 39.588 125.181 39.0941C124.456 38.5949 123.721 38.3186 122.976 38.2654C122.232 38.2121 121.519 38.3706 120.839 38.741C120.159 39.1113 119.553 39.6823 119.022 40.4538C118.49 41.2254 118.173 41.995 118.069 42.7626C117.966 43.5301 118.069 44.2562 118.379 44.9408C118.694 45.6176 119.214 46.2056 119.939 46.7048C120.656 47.1986 121.387 47.4722 122.131 47.5255C122.882 47.571 123.601 47.4112 124.289 47.0462C124.969 46.6759 125.575 46.105 126.106 45.3334Z" fill="white"/>
<path d="M142.188 16.0348C142.803 15.6086 143.411 15.3479 144.013 15.2527C144.615 15.1575 145.178 15.2218 145.702 15.4457C146.22 15.6619 146.658 16.0265 147.014 16.5397C147.37 17.0528 147.561 17.594 147.587 18.1632C147.608 18.7246 147.472 19.2745 147.177 19.8129C146.877 20.3435 146.42 20.8219 145.806 21.2481L141.817 24.0157L141.154 23.0593L145.119 20.3079C145.71 19.8979 146.074 19.4265 146.211 18.8936C146.35 18.3476 146.245 17.8219 145.894 17.3165C145.543 16.8112 145.091 16.5321 144.536 16.4794C143.989 16.4213 143.42 16.5973 142.829 17.0073L138.98 19.6778L139.098 18.8014L144.876 27.1287L143.779 27.8894L137.71 19.1423L142.188 16.0348Z" fill="white"/>
<path d="M153.921 14.859L158.07 12.9399C158.705 12.6459 159.139 12.2526 159.37 11.76C159.609 11.2634 159.606 10.7488 159.359 10.2163C159.109 9.67518 158.719 9.33942 158.19 9.20901C157.665 9.06604 157.084 9.14157 156.449 9.43559L152.133 11.4322L152.376 10.5377L156.655 19.7881L155.444 20.3483L150.974 10.6856L155.999 8.36125C156.652 8.05928 157.278 7.91531 157.879 7.92932C158.476 7.93475 159.009 8.08433 159.479 8.37804C159.957 8.66779 160.325 9.09181 160.583 9.6501C160.838 10.1998 160.92 10.7506 160.832 11.3026C160.751 11.8506 160.522 12.3581 160.144 12.8251C159.762 13.2835 159.244 13.6637 158.591 13.9656L154.404 15.9026L153.921 14.859ZM156.328 14.4495L157.823 13.7581L163.947 16.4148L162.44 17.1121L156.328 14.4495Z" fill="white"/>
<path d="M173.456 13.7409C172.309 14.0284 171.238 14.0577 170.244 13.8287C169.259 13.5975 168.423 13.1434 167.737 12.4667C167.048 11.7808 166.571 10.91 166.307 9.85436C166.04 8.7895 166.049 7.7968 166.336 6.87625C166.622 5.95569 167.145 5.16125 167.905 4.49291C168.673 3.82228 169.631 3.34319 170.779 3.05566C171.926 2.76812 172.992 2.74 173.977 2.97128C174.962 3.20256 175.797 3.65656 176.484 4.33329C177.171 5.01001 177.648 5.8808 177.914 6.94565C178.179 8.00133 178.169 8.99403 177.885 9.92376C177.599 10.8443 177.076 11.6388 176.316 12.3071C175.557 12.9754 174.604 13.4534 173.456 13.7409ZM173.163 12.5705C174.072 12.3428 174.819 11.9751 175.404 11.4675C175.986 10.9508 176.383 10.3343 176.594 9.61805C176.805 8.90182 176.804 8.12143 176.592 7.27689C176.379 6.42318 176.01 5.73021 175.486 5.198C174.963 4.66578 174.323 4.31381 173.568 4.14208C172.813 3.97035 171.981 3.99835 171.072 4.22608C170.163 4.4538 169.416 4.82145 168.831 5.32903C168.246 5.8366 167.844 6.44965 167.624 7.16819C167.413 7.88442 167.414 8.6694 167.628 9.52312C167.84 10.3677 168.208 11.056 168.731 11.5882C169.264 12.1182 169.909 12.4736 170.667 12.6545C171.422 12.8262 172.254 12.7982 173.163 12.5705Z" fill="white"/>
<path d="M194.772 6.8488C194.717 7.69457 194.454 8.45535 193.984 9.13116C193.513 9.79751 192.88 10.3294 192.084 10.7268C191.297 11.1238 190.384 11.3467 189.344 11.3955C188.172 11.4506 187.13 11.2674 186.22 10.8459C185.319 10.424 184.604 9.81337 184.073 9.01404C183.543 8.20525 183.252 7.2573 183.201 6.17019C183.149 5.07362 183.35 4.10258 183.803 3.25707C184.256 2.41155 184.911 1.73654 185.768 1.23204C186.635 0.727096 187.655 0.447093 188.827 0.392031C189.867 0.343186 190.797 0.479501 191.617 0.800977C192.447 1.12201 193.128 1.59216 193.659 2.21145C194.19 2.82127 194.522 3.54936 194.657 4.3957L193.31 4.45898C193.167 3.8404 192.896 3.31311 192.496 2.87712C192.097 2.43168 191.588 2.10028 190.972 1.88292C190.355 1.6561 189.654 1.56112 188.869 1.59797C187.952 1.64105 187.162 1.85345 186.498 2.23519C185.843 2.61648 185.346 3.1372 185.008 3.79733C184.669 4.45746 184.521 5.2271 184.562 6.10624C184.603 6.97593 184.823 7.72353 185.222 8.34903C185.621 8.97452 186.164 9.45112 186.852 9.77881C187.549 10.0966 188.356 10.234 189.273 10.1909C190.058 10.154 190.747 9.99851 191.34 9.72431C191.933 9.44066 192.408 9.06307 192.765 8.59156C193.121 8.11059 193.341 7.55076 193.425 6.91207L194.772 6.8488Z" fill="white"/>
<path d="M211.093 8.78921C210.875 9.6083 210.47 10.3038 209.877 10.8756C209.286 11.4381 208.562 11.8372 207.704 12.0729C206.855 12.3099 205.916 12.3516 204.886 12.1981C203.726 12.025 202.74 11.6435 201.928 11.0537C201.126 10.4652 200.543 9.72754 200.177 8.84063C199.813 7.94436 199.712 6.95802 199.872 5.88161C200.034 4.79584 200.419 3.88209 201.027 3.14035C201.635 2.39861 202.409 1.86332 203.348 1.53449C204.296 1.20706 205.351 1.12989 206.511 1.30297C207.541 1.45652 208.427 1.77045 209.169 2.24478C209.921 2.72051 210.498 3.3136 210.899 4.02407C211.302 4.72517 211.487 5.50391 211.455 6.36028L210.121 6.16137C210.101 5.52685 209.937 4.95703 209.63 4.45192C209.324 3.93744 208.889 3.51385 208.327 3.18116C207.765 2.8391 207.096 2.61014 206.319 2.49429C205.411 2.35889 204.595 2.4141 203.869 2.65992C203.153 2.90714 202.565 3.32177 202.105 3.90382C201.645 4.48586 201.35 5.21213 201.22 6.08262C201.092 6.94374 201.162 7.71977 201.433 8.41069C201.703 9.10161 202.144 9.67447 202.755 10.1293C203.377 10.5761 204.142 10.8672 205.05 11.0026C205.827 11.1184 206.533 11.0994 207.169 10.9453C207.805 10.7819 208.345 10.5035 208.786 10.1101C209.229 9.70727 209.553 9.20068 209.759 8.5903L211.093 8.78921Z" fill="white"/>
<path d="M224.733 11.2032L224.363 12.2768L217.506 9.91127L217.876 8.83772L224.733 11.2032ZM218.483 9.64761L216.088 14.1074L215.691 13.0842L223.554 15.7969L223.175 16.8973L214.694 13.9716L217.262 9.22636L218.166 3.90709L226.579 6.8096L226.2 7.90999L218.403 5.22042L219.347 4.66014L218.483 9.64761Z" fill="white"/>
<path d="M229.081 15.6912L230.261 16.3442C230.076 16.8151 230.037 17.2964 230.144 17.788C230.25 18.2796 230.489 18.7471 230.86 19.1904C231.244 19.6301 231.747 20.0218 232.368 20.3655C233.303 20.8833 234.131 21.1362 234.852 21.124C235.585 21.1081 236.103 20.8269 236.406 20.2804C236.64 19.8581 236.644 19.439 236.42 19.023C236.205 18.6115 235.698 18.1201 234.9 17.5487L233.223 16.3284C232.162 15.5681 231.495 14.8476 231.223 14.167C230.955 13.478 231.014 12.7858 231.399 12.0902C231.706 11.5355 232.137 11.1469 232.693 10.9245C233.253 10.6938 233.891 10.6358 234.606 10.7504C235.335 10.8614 236.1 11.1392 236.903 11.5837C237.707 12.0282 238.35 12.5465 238.833 13.1386C239.33 13.727 239.639 14.3414 239.76 14.9819C239.894 15.6187 239.816 16.2402 239.523 16.8464L238.343 16.1934C238.514 15.7684 238.544 15.3419 238.435 14.9137C238.33 14.4773 238.098 14.0567 237.738 13.6519C237.391 13.2434 236.923 12.8765 236.336 12.5511C235.483 12.0791 234.715 11.8542 234.032 11.8764C233.362 11.895 232.878 12.1734 232.58 12.7116C232.351 13.1256 232.34 13.536 232.547 13.9429C232.768 14.346 233.252 14.8196 234 15.3634L235.633 16.5755C236.398 17.1286 236.968 17.6332 237.343 18.0894C237.726 18.5502 237.936 19.0017 237.972 19.4438C238.013 19.8775 237.899 20.3387 237.628 20.8272C237.303 21.4151 236.843 21.8258 236.249 22.0593C235.663 22.2974 234.987 22.3559 234.221 22.2349C233.455 22.1139 232.65 21.8197 231.805 21.3522C230.952 20.8802 230.268 20.3284 229.752 19.6968C229.241 19.057 228.922 18.3934 228.794 17.7061C228.67 17.0104 228.766 16.3388 229.081 15.6912Z" fill="white"/>
<path d="M241.572 23.0433L242.622 23.89C242.359 24.322 242.237 24.7893 242.257 25.2919C242.277 25.7945 242.432 26.2961 242.721 26.7969C243.023 27.2962 243.451 27.7686 244.003 28.2143C244.836 28.8857 245.608 29.2776 246.32 29.3898C247.045 29.5007 247.604 29.313 247.996 28.8269C248.299 28.4512 248.376 28.0392 248.227 27.5908C248.085 27.1483 247.671 26.5768 246.984 25.8764L245.542 24.3852C244.628 23.4533 244.096 22.6286 243.945 21.9112C243.8 21.1864 243.977 20.5147 244.476 19.8959C244.874 19.4024 245.366 19.0941 245.952 18.9708C246.544 18.8402 247.182 18.8931 247.867 19.1294C248.565 19.3642 249.271 19.7699 249.986 20.3462C250.7 20.9226 251.244 21.5441 251.619 22.2107C252.006 22.8759 252.204 23.5344 252.214 24.1862C252.236 24.8366 252.051 25.4352 251.659 25.9819L250.609 25.1352C250.85 24.746 250.954 24.3311 250.92 23.8905C250.892 23.4426 250.736 22.9882 250.451 22.5274C250.18 22.0652 249.782 21.6231 249.259 21.2012C248.501 20.5892 247.783 20.2353 247.107 20.1394C246.443 20.0421 245.919 20.2329 245.532 20.7116C245.235 21.0799 245.154 21.4823 245.288 21.9189C245.436 22.354 245.831 22.904 246.474 23.5687L247.874 25.0442C248.532 25.7209 249.006 26.3162 249.296 26.8302C249.594 27.3502 249.723 27.8311 249.683 28.2728C249.649 28.7072 249.456 29.1417 249.106 29.5763C248.684 30.0993 248.16 30.4245 247.534 30.552C246.916 30.6855 246.24 30.6266 245.507 30.3753C244.773 30.124 244.031 29.6953 243.279 29.0893C242.521 28.4772 241.942 27.8157 241.543 27.1047C241.149 26.3862 240.949 25.6775 240.942 24.9784C240.94 24.2719 241.15 23.6269 241.572 23.0433Z" fill="white"/>
<path d="M258.152 28.0248L259.073 28.9901L251.371 36.3402L250.45 35.3748L258.152 28.0248Z" fill="white"/>
<path d="M261.387 47.9874L260.974 47.4797L269.145 41.6764L269.893 42.7295L261.213 48.8945L260.218 47.4942L263.695 35.0825L264.108 35.5902L255.903 41.4182L255.155 40.3651L263.834 34.2001L264.837 35.612L261.387 47.9874Z" fill="white"/>
<path d="M272.612 61.6584C271.994 61.9209 271.364 62.0536 270.724 62.0566C270.088 62.0682 269.473 61.9516 268.879 61.7068C268.297 61.4669 267.762 61.0978 267.274 60.5997C266.789 60.1102 266.384 59.4974 266.06 58.7614C265.716 57.9821 265.516 57.2119 265.459 56.4507C265.415 55.6943 265.507 54.9763 265.735 54.2967C265.967 53.6257 266.332 53.0247 266.833 52.4938C267.341 51.9591 267.977 51.5237 268.739 51.1876C269.501 50.8516 270.247 50.6779 270.976 50.6665C271.718 50.6599 272.416 50.8017 273.072 51.0919C273.727 51.382 274.317 51.8045 274.841 52.3595C275.374 52.9106 275.816 53.5845 276.167 54.3811C276.587 55.3336 276.797 56.2442 276.798 57.1128C276.802 57.9901 276.622 58.778 276.258 59.4765C275.902 60.1712 275.384 60.7203 274.704 61.1238L274.154 59.877C274.64 59.5488 275.001 59.1255 275.238 58.6073C275.484 58.0853 275.595 57.5038 275.57 56.8628C275.55 56.2305 275.382 55.555 275.065 54.8363C274.694 53.9964 274.211 53.3354 273.616 52.8533C273.024 52.3798 272.358 52.0997 271.616 52.0131C270.879 51.9351 270.103 52.0755 269.289 52.4345C268.484 52.7897 267.859 53.2722 267.414 53.882C266.969 54.4919 266.726 55.1835 266.684 55.9569C266.643 56.7303 266.809 57.5413 267.183 58.3899C267.55 59.2211 268.02 59.8773 268.595 60.3584C269.173 60.8482 269.802 61.1498 270.483 61.2632C271.164 61.3766 271.85 61.2911 272.542 61.0067L272.612 61.6584ZM270.201 57.6331L271.175 57.2035L273.249 61.9052L268.56 63.9731L268.142 63.025L272.22 61.0865L271.954 61.6075L270.201 57.6331Z" fill="white"/>
<path d="M283.72 87.4532C283.761 88.1998 283.664 88.8542 283.429 89.4167C283.194 89.9792 282.844 90.4247 282.378 90.7533C281.922 91.0814 281.383 91.2624 280.759 91.2963C280.135 91.3302 279.574 91.209 279.076 90.9328C278.587 90.6561 278.191 90.2512 277.887 89.718C277.592 89.1843 277.425 88.5442 277.384 87.7977L277.121 82.95L278.283 82.8868L278.545 87.7062C278.584 88.4243 278.794 88.9815 279.176 89.3778C279.568 89.783 280.071 89.9689 280.685 89.9355C281.299 89.9021 281.774 89.663 282.11 89.2183C282.447 88.783 282.595 88.2062 282.556 87.4881L282.302 82.8105L282.986 83.3704L272.866 83.9206L272.793 82.5882L283.424 82.0102L283.72 87.4532Z" fill="white"/>
<path d="M283.5 99.0313L273.517 97.8741L274.163 97.3489L273.237 105.344L272.066 105.209L273.078 96.48L283.654 97.7058L283.5 99.0313Z" fill="white"/>
<path d="M273.378 111.447L274.466 111.775L272.306 118.952L271.218 118.625L273.378 111.447ZM279.724 118.145L268.019 120.093L268.436 118.707L279.616 116.927L279.411 117.606L271.075 109.939L271.492 108.552L280.178 116.636L279.724 118.145Z" fill="white"/>
<path d="M273.645 131.567L273.037 132.755L264.127 128.197L264.735 127.009L273.645 131.567ZM276.295 127.788L271.524 137.115L270.475 136.578L275.246 127.252L276.295 127.788Z" fill="white"/>
<path d="M263.87 140.057L259.311 146.148L258.367 145.442L262.927 139.351L263.87 140.057ZM263.036 149.203L262.092 148.497L266.864 142.121L267.044 143.302L258.783 137.118L259.582 136.05L268.105 142.429L263.036 149.203Z" fill="white"/>
<path d="M247.26 149.988C248.13 149.187 249.056 148.649 250.039 148.375C251.014 148.107 251.965 148.106 252.892 148.372C253.825 148.645 254.66 149.182 255.397 149.982C256.141 150.79 256.607 151.667 256.796 152.612C256.984 153.558 256.905 154.505 256.558 155.455C256.203 156.412 255.591 157.291 254.721 158.092C253.851 158.893 252.928 159.428 251.952 159.695C250.977 159.963 250.026 159.964 249.099 159.698C248.172 159.432 247.337 158.895 246.594 158.088C245.856 157.287 245.39 156.41 245.195 155.458C245.007 154.513 245.086 153.565 245.433 152.615C245.781 151.665 246.389 150.789 247.26 149.988ZM248.077 150.876C247.388 151.51 246.908 152.19 246.636 152.916C246.372 153.648 246.318 154.379 246.476 155.109C246.633 155.839 247.006 156.524 247.596 157.165C248.192 157.812 248.848 158.244 249.562 158.461C250.276 158.679 251.006 158.682 251.752 158.472C252.497 158.261 253.214 157.839 253.904 157.204C254.593 156.57 255.073 155.89 255.344 155.164C255.615 154.439 255.675 153.708 255.525 152.971C255.368 152.242 254.991 151.553 254.395 150.905C253.805 150.265 253.153 149.836 252.439 149.619C251.717 149.408 250.981 149.405 250.229 149.608C249.484 149.819 248.766 150.241 248.077 150.876Z" fill="white"/>
<path d="M241.191 162.281L237.31 164.695C236.715 165.065 236.333 165.509 236.165 166.026C235.988 166.548 236.054 167.058 236.364 167.556C236.679 168.063 237.107 168.348 237.649 168.413C238.187 168.49 238.754 168.344 239.349 167.974L243.387 165.463L243.255 166.38L237.873 157.725L239.006 157.02L244.628 166.061L239.927 168.985C239.316 169.365 238.712 169.585 238.114 169.644C237.521 169.712 236.973 169.629 236.471 169.395C235.961 169.167 235.544 168.791 235.219 168.269C234.899 167.754 234.749 167.218 234.77 166.659C234.782 166.105 234.947 165.574 235.265 165.064C235.588 164.562 236.055 164.121 236.666 163.741L240.584 161.305L241.191 162.281ZM238.853 162.983L237.454 163.853L231.05 161.968L232.46 161.091L238.853 162.983Z" fill="white"/>
<path d="M217.9 178.816L214.244 168.817L215.444 168.378L218.993 178.084L218.495 178.251L220.004 166.711L221.337 166.224L229.929 174.055L229.44 174.249L225.896 164.556L227.096 164.118L230.752 174.117L228.859 174.809L220.426 167.04L221.213 166.753L219.793 178.124L217.9 178.816Z" fill="white"/>
<path d="M107.398 33.1564L91.1803 49.3743L90.8199 49.7346L91.1803 50.095L148.483 107.398L165.475 123.383L181.64 107.398L107.398 33.1564Z" fill="url(#paint2_linear_1_372)"/>
<path d="M33.1565 74.2416L49.3743 90.4594L49.7347 90.8198L50.0951 90.4594L107.398 33.1564L181.64 107.398L181.64 74.2416L107.398 1.6226e-06L33.1565 74.2416Z" fill="url(#paint3_linear_1_372)"/>
<path d="M74.602 148.844L90.8198 132.626L91.1802 132.265L90.4594 131.545L33.1564 74.2416L107.398 1.12322e-05L74.2416 7.76454e-06L-7.76454e-06 74.2416L74.602 148.844Z" fill="url(#paint4_linear_1_372)"/>
<defs>
<linearGradient id="paint0_linear_1_372" x1="22.7049" y1="59.4653" x2="116.408" y2="142.717" gradientUnits="userSpaceOnUse">
<stop stop-color="#A36C90"/>
<stop offset="1" stop-color="#320E28"/>
</linearGradient>
<linearGradient id="paint1_linear_1_372" x1="59.105" y1="159.295" x2="142.356" y2="65.5921" gradientUnits="userSpaceOnUse">
<stop stop-color="#A36C90"/>
<stop offset="1" stop-color="#320E28"/>
</linearGradient>
<linearGradient id="paint2_linear_1_372" x1="78.0197" y1="109.805" x2="124.231" y2="37.4227" gradientUnits="userSpaceOnUse">
<stop stop-color="#A36C90"/>
<stop offset="1" stop-color="#320E28"/>
</linearGradient>
<linearGradient id="paint3_linear_1_372" x1="159.295" y1="122.535" x2="65.5921" y2="39.2832" gradientUnits="userSpaceOnUse">
<stop stop-color="#A36C90"/>
<stop offset="1" stop-color="#320E28"/>
</linearGradient>
<linearGradient id="paint4_linear_1_372" x1="122.535" y1="22.3988" x2="39.0575" y2="116.128" gradientUnits="userSpaceOnUse">
<stop stop-color="#A36C90"/>
<stop offset="1" stop-color="#320E28"/>
</linearGradient>
</defs>
</svg>
